<svg xmlns="http://www.w3.org/2000/svg" xmlns:svg="http://www.w3.org/2000/svg" xmlns:xlink="http://www.w3.org/1999/xlink" version="1.0" height="1489.9999999999995pt" width="1799.9999999999998pt" viewBox="-155 -582.9999999999998 1807.9999999999998 1495.9999999999995" ><defs><style type="text/css">
            @font-face {
                font-family: 'noto_regular';
                src: url('https://app.creately.com/diagram/assets/fonts/noto/noto-regular.woff') format('woff'),
                     url('https://app.creately.com/diagram/assets/fonts/noto/noto-regular.woff2') format('woff2');
                font-weight: normal;
                font-style: normal;
            }
        p {
            margin: 0;
        }
        </style></defs><defs><style>
            span{ display: inline-block; }
        </style></defs><g id="6II9AfZv9ba"><g transform="translate(519.9999999999998 -579.9999999999998)"><path d="M 29.999999999999876,59.99999999999975 L 29.99999999999988,59.999999999999744 L 29.999999999999883,59.999999999999744 A 29.999999999999876 29.999999999999876 0 0 1 3.552713678800501e-15 29.999999999999876 L 1.0658141036401503e-14,29.999999999999883 L 1.0658141036401503e-14,29.999999999999883 A 29.999999999999876 29.999999999999876 0 0 1 29.99999999999989 3.552713678800501e-15 L 270.0000000000004,0 L 270.0000000000004,3.552713678800501e-15 L 270.0000000000004,3.552713678800501e-15 A 29.999999999999876 29.999999999999876 0 0 1 300.0000000000003 29.99999999999988 L 300.0000000000003,29.999999999999872 L 300.0000000000003,29.999999999999872 A 29.999999999999876 29.999999999999876 0 0 1 270.0000000000004 59.999999999999744 L 29.999999999999876,59.99999999999975 Z" fill="rgb(224,98,108)" stroke="#843138" stroke-width="2" stroke-linecap="round" stroke-linejoin="round"/></g><g transform="translate(640.0749999999999, -568.0049999999999) rotate(0, 29.925, 18.005)" width="59.85" height="36.01"><text text-decoration="none" x="0.9250000000000007" fill="#ffffff" font-size="20pt" font-family="noto_regular"  y="25">Start</text><text text-decoration="none" x="58.925" fill="#4b4b4b" font-size="10pt" font-family="noto_regular"  y="25"></text></g></g><g id="vTuOtN45db8"><g transform="translate(520.0000000000002 -449.99999999999983)"><path d="M 0,120.00000000000003 L 20,0 L 300.00000000000017,0 L 280.00000000000017,120.00000000000003 L 0,120.00000000000003 Z" fill="rgb(131,196,220)" stroke="#2F8CAE" stroke-width="2" stroke-linecap="round" stroke-linejoin="round"/></g><g transform="translate(561.4250000000003, -408.00499999999977) rotate(0, 108.575, 18.005)" width="217.15" height="36.01"><text text-decoration="none" x="3.075000000000003" fill="#ffffff" font-size="20pt" font-family="noto_regular"  y="25">Get&#160;</text><text text-decoration="none" x="51.075" fill="#ffffff" font-size="20pt" font-family="noto_regular"  y="25">users&#160;</text><text text-decoration="none" x="124.075" fill="#ffffff" font-size="20pt" font-family="noto_regular"  y="25">Choice&#160;</text><text text-decoration="none" x="214.075" fill="#4b4b4b" font-size="10pt" font-family="noto_regular"  y="25"></text></g></g><g id="b77ivFD1DGJ"><g transform="translate(430.00000000000006 -270)"><rect x="0" y="0" width="449.99999999999966" height="120.00000000000016" fill="rgb(131,196,220)" stroke="#2F8CAE" stroke-width="2" stroke-linecap="round" stroke-linejoin="round"/></g><g transform="translate(474.5899999999999, -228.0049999999999) rotate(0, 180.41, 18.005)" width="360.82" height="36.01"><text text-decoration="none" x="7.909999999999997" fill="#ffffff" font-size="20pt" font-family="noto_regular"  y="25">Generate&#160;</text><text text-decoration="none" x="122.91" fill="#ffffff" font-size="20pt" font-family="noto_regular"  y="25">Computers&#160;</text><text text-decoration="none" x="262.90999999999997" fill="#ffffff" font-size="20pt" font-family="noto_regular"  y="25">Choice&#160;</text><text text-decoration="none" x="352.90999999999997" fill="#4b4b4b" font-size="10pt" font-family="noto_regular"  y="25"></text></g></g><g id="FBqYB6tYP6T"><g transform="translate(120 -79.99999999999966)"><path d="M 110.00000000000007,0 L 0,64.99999999999993 L 110.00000000000007,129.99999999999986 L 220.00000000000014,64.99999999999993 L 110.00000000000007,0 Z" fill="rgb(190,180,180)" stroke="#585757" stroke-width="2" stroke-linecap="round" stroke-linejoin="round"/></g><g transform="translate(161.48000000000008, -33.004999999999725) rotate(0, 68.52, 18.005)" width="137.04" height="36.01"><text text-decoration="none" x="1.519999999999996" fill="#ffffff" font-size="20pt" font-family="noto_regular"  y="25">U&#x27;s&#160;</text><text text-decoration="none" x="45.519999999999996" fill="#ffffff" font-size="20pt" font-family="noto_regular"  y="25">==Rock</text><text text-decoration="none" x="135.51999999999998" fill="#4b4b4b" font-size="10pt" font-family="noto_regular"  y="25"></text></g></g><g id="R2RQGK7hzbs"><g transform="translate(509.99999999999994 -79.99999999999966)"><path d="M 110.00000000000007,0 L 0,64.99999999999993 L 110.00000000000007,129.99999999999986 L 220.00000000000014,64.99999999999993 L 110.00000000000007,0 Z" fill="rgb(190,180,180)" stroke="#585757" stroke-width="2" stroke-linecap="round" stroke-linejoin="round"/></g><g transform="translate(544.59, -33.004999999999725) rotate(0, 75.41, 18.005)" width="150.82" height="36.01"><text text-decoration="none" x="3.4099999999999966" fill="#ffffff" font-size="20pt" font-family="noto_regular"  y="25">U&#x27;s&#160;</text><text text-decoration="none" x="47.41" fill="#ffffff" font-size="20pt" font-family="noto_regular"  y="25">==Paper</text><text text-decoration="none" x="147.41" fill="#4b4b4b" font-size="10pt" font-family="noto_regular"  y="25"></text></g></g><g id="1ZpH9GAcvUc"><g transform="translate(900 -70)"><path d="M 110.00000000000007,0 L 0,64.99999999999993 L 110.00000000000007,129.99999999999986 L 220.00000000000014,64.99999999999993 L 110.00000000000007,0 Z" fill="rgb(190,180,180)" stroke="#585757" stroke-width="2" stroke-linecap="round" stroke-linejoin="round"/></g><g transform="translate(921.4800000000001, -23.00500000000007) rotate(0, 88.52, 18.005)" width="177.04" height="36.01"><text text-decoration="none" x="0.01999999999999602" fill="#ffffff" font-size="20pt" font-family="noto_regular"  y="25">U&#x27;s&#160;</text><text text-decoration="none" x="44.019999999999996" fill="#ffffff" font-size="20pt" font-family="noto_regular"  y="25">==Scissors</text><text text-decoration="none" x="177.01999999999998" fill="#4b4b4b" font-size="10pt" font-family="noto_regular"  y="25"></text></g></g><g id="0NSVwVlVLrp"><g><path d="M 670,-520 L 669.9999999999999,-494.9999999999999 Q 669.9999999999999,-494.9999999999997 670,-485 Q 670.0000000000002,-475.0000000000002 670.0000000000002,-474.9999999999999 L 670,-450" fill="none" stroke="#7E7E7E" stroke-width="2" stroke-linecap="round" stroke-linejoin="round"/><path d="M 670,-450 L 675.75,-458.69565217391306 L 664.25,-458.69565217391306 Z" fill="rgb(126,126,126)" stroke="#7E7E7E" stroke-width="2" stroke-linecap="round" stroke-linejoin="round"/></g></g><g id="rhRoatjWKKI"><g><path d="M 672,-270 L 670,-330" fill="none" stroke="#7E7E7E" stroke-width="2" stroke-linecap="round" stroke-linejoin="round"/><path d="M 672,-270 L 677.3866152399756,-278.9253147275679 L 665.8963924991394,-278.45120359505773 Z" fill="rgb(126,126,126)" stroke="#7E7E7E" stroke-width="2" stroke-linecap="round" stroke-linejoin="round"/></g></g><g id="1oIu3i4fguO"><g><path d="M 430,-210 L 240.00000000000006,-209.99999999999991 Q 230.00000000000006,-209.99999999999991 230.00000000000006,-199.99999999999991 L 230,-80" fill="none" stroke="#7E7E7E" stroke-width="2" stroke-linecap="round" stroke-linejoin="round"/><path d="M 230,-80 L 235.75,-88.69565217391305 L 224.25,-88.69565217391305 Z" fill="rgb(126,126,126)" stroke="#7E7E7E" stroke-width="2" stroke-linecap="round" stroke-linejoin="round"/></g></g><g id="moQPFriVE0e"><g><path d="M 340,-15 L 510,-15" fill="none" stroke="#7E7E7E" stroke-width="2" stroke-linecap="round" stroke-linejoin="round"/><path d="M 510,-15 L 501.30434782608694,-20.75 L 501.30434782608694,-9.25 Z" fill="rgb(126,126,126)" stroke="#7E7E7E" stroke-width="2" stroke-linecap="round" stroke-linejoin="round"/></g></g><g id="mEbfuwa7r6p"><g transform="translate(400.00000000000006 -60)"><rect x="0" y="0" width="120" height="40" fill="rgba(255,255,255,0.01)" stroke="rgba(255,255,255,0.01)"/></g><g transform="translate(410.00000000000006, -50) rotate(0, 0, 0)" width="21.68" height="18"><text text-decoration="none" x="0" fill="#656565" font-size="10pt" font-family="noto_regular"  y="15">No&#160;</text><text text-decoration="none" x="19" fill="#4b4b4b" font-size="10pt" font-family="noto_regular"  y="15"></text></g></g><g id="cUSZCsRkcbu"><g transform="translate(-100 240)"><rect x="0" y="0" width="120" height="40" fill="rgba(255,255,255,0.01)" stroke="rgba(255,255,255,0.01)"/></g><g transform="translate(-90, 250) rotate(0, 0, 0)" width="21.46" height="18"><text text-decoration="none" x="0" fill="#656565" font-size="10pt" font-family="noto_regular"  y="15">Yes</text><text text-decoration="none" x="22" fill="#4b4b4b" font-size="10pt" font-family="noto_regular"  y="15"></text></g></g><g id="8jK9SOoD85H"><g transform="translate(770 -60)"><rect x="0" y="0" width="120" height="40" fill="rgba(255,255,255,0.01)" stroke="rgba(255,255,255,0.01)"/></g><g transform="translate(780, -50) rotate(0, 0, 0)" width="21.68" height="18"><text text-decoration="none" x="0" fill="#656565" font-size="10pt" font-family="noto_regular"  y="15">No&#160;</text><text text-decoration="none" x="19" fill="#4b4b4b" font-size="10pt" font-family="noto_regular"  y="15"></text></g></g><g id="ER2fqkTHGqI"><g><path d="M 729,-10 L 899,-10" fill="none" stroke="#7E7E7E" stroke-width="2" stroke-linecap="round" stroke-linejoin="round"/><path d="M 899,-10 L 890.304347826087,-15.75 L 890.304347826087,-4.25 Z" fill="rgb(126,126,126)" stroke="#7E7E7E" stroke-width="2" stroke-linecap="round" stroke-linejoin="round"/></g></g><g id="stSR5hdvXUo"><g transform="translate(1210 49.999999999999886)"><path d="M 110.00000000000007,0 L 0,64.99999999999993 L 110.00000000000007,129.99999999999986 L 220.00000000000014,64.99999999999993 L 110.00000000000007,0 Z" fill="rgb(190,180,180)" stroke="#585757" stroke-width="2" stroke-linecap="round" stroke-linejoin="round"/></g><g transform="translate(1252.81, 96.99499999999982) rotate(0, 67.19, 18.005)" width="134.38" height="36.01"><text text-decoration="none" x="0.18999999999999773" fill="#ffffff" font-size="20pt" font-family="noto_regular"  y="25">C&#x27;s&#160;</text><text text-decoration="none" x="44.19" fill="#ffffff" font-size="20pt" font-family="noto_regular"  y="25">==Rock</text><text text-decoration="none" x="134.19" fill="#4b4b4b" font-size="10pt" font-family="noto_regular"  y="25"></text></g></g><g id="oXWbTyCVDIT"><g transform="translate(10 140)"><path d="M 110.00000000000007,0 L 0,64.99999999999993 L 110.00000000000007,129.99999999999986 L 220.00000000000014,64.99999999999993 L 110.00000000000007,0 Z" fill="rgb(190,180,180)" stroke="#585757" stroke-width="2" stroke-linecap="round" stroke-linejoin="round"/></g><g transform="translate(52.81000000000009, 186.99499999999995) rotate(0, 67.19, 18.005)" width="134.38" height="36.01"><text text-decoration="none" x="0.18999999999999773" fill="#ffffff" font-size="20pt" font-family="noto_regular"  y="25">C&#x27;s&#160;</text><text text-decoration="none" x="44.19" fill="#ffffff" font-size="20pt" font-family="noto_regular"  y="25">==Rock</text><text text-decoration="none" x="134.19" fill="#4b4b4b" font-size="10pt" font-family="noto_regular"  y="25"></text></g></g><g id="HiQ1RTdQKpJ"><g transform="translate(119.99999999999966 340)"><path d="M 110.00000000000007,0 L 0,64.99999999999993 L 110.00000000000007,129.99999999999986 L 220.00000000000014,64.99999999999993 L 110.00000000000007,0 Z" fill="rgb(190,180,180)" stroke="#585757" stroke-width="2" stroke-linecap="round" stroke-linejoin="round"/></g><g transform="translate(155.91999999999973, 386.99499999999995) rotate(0, 74.08, 18.005)" width="148.16" height="36.01"><text text-decoration="none" x="2.0799999999999983" fill="#ffffff" font-size="20pt" font-family="noto_regular"  y="25">C&#x27;s&#160;</text><text text-decoration="none" x="46.08" fill="#ffffff" font-size="20pt" font-family="noto_regular"  y="25">==Paper</text><text text-decoration="none" x="146.07999999999998" fill="#4b4b4b" font-size="10pt" font-family="noto_regular"  y="25"></text></g></g><g id="Mk5Kd8rf4Yn"><g transform="translate(670 170.00000000000006)"><path d="M 110.00000000000007,0 L 0,64.99999999999993 L 110.00000000000007,129.99999999999986 L 220.00000000000014,64.99999999999993 L 110.00000000000007,0 Z" fill="rgb(190,180,180)" stroke="#585757" stroke-width="2" stroke-linecap="round" stroke-linejoin="round"/></g><g transform="translate(712.81, 216.99499999999998) rotate(0, 67.19, 18.005)" width="134.38" height="36.01"><text text-decoration="none" x="0.18999999999999773" fill="#ffffff" font-size="20pt" font-family="noto_regular"  y="25">C&#x27;s&#160;</text><text text-decoration="none" x="44.19" fill="#ffffff" font-size="20pt" font-family="noto_regular"  y="25">==Rock</text><text text-decoration="none" x="134.19" fill="#4b4b4b" font-size="10pt" font-family="noto_regular"  y="25"></text></g></g><g id="gsEcrXftiSI"><g transform="translate(1129.9999999999998 319.9999999999999)"><path d="M 110.00000000000007,0 L 0,64.99999999999993 L 110.00000000000007,129.99999999999986 L 220.00000000000014,64.99999999999993 L 110.00000000000007,0 Z" fill="rgb(190,180,180)" stroke="#585757" stroke-width="2" stroke-linecap="round" stroke-linejoin="round"/></g><g transform="translate(1165.92, 366.99499999999983) rotate(0, 74.08, 18.005)" width="148.16" height="36.01"><text text-decoration="none" x="2.0799999999999983" fill="#ffffff" font-size="20pt" font-family="noto_regular"  y="25">C&#x27;s&#160;</text><text text-decoration="none" x="46.08" fill="#ffffff" font-size="20pt" font-family="noto_regular"  y="25">==Paper</text><text text-decoration="none" x="146.07999999999998" fill="#4b4b4b" font-size="10pt" font-family="noto_regular"  y="25"></text></g></g><g id="1O5pC8Xp1Kz"><mask id="e5c80" x="103" y="-25" width="31" height="179" maskUnits="userSpaceOnUse"><rect x="103" y="-25" width="31" height="179" fill="white" />undefined</mask><g mask="url(#e5c80)"><path d="M 120,-11 Q 116.75883928039369,-3.861644657634354 116.76433617044637,-0.5825383223579141 L 117,140" fill="none" stroke="#7E7E7E" stroke-width="2" stroke-linecap="round" stroke-linejoin="round"/><path d="M 117,140 L 122.75,131.30434782608697 L 111.25,131.30434782608697 Z" fill="rgb(126,126,126)" stroke="#7E7E7E" stroke-width="2" stroke-linecap="round" stroke-linejoin="round"/></g>undefined</g><g id="nTM8UpMmm8v"><mask id="3b973" x="216" y="191" width="48" height="163" maskUnits="userSpaceOnUse"><rect x="216" y="191" width="48" height="163" fill="white" /><rect x="237.8950000000001" y="260.5000000000001" width="24.21" height="24" fill="black" /></mask><g mask="url(#3b973)"><path d="M 230,205 L 240.00000000000014,204.99999999999997 Q 250.00000000000014,204.99999999999994 250.0000000000001,214.99999999999994 L 250,247 L 250.0000000000001,279.9999999999999 Q 250.00000000000014,289.9999999999999 240.00000000000014,290 L 240,290 L 239.99999999999972,290 Q 229.99999999999972,289.9999999999999 229.99999999999977,299.9999999999999 L 230,340" fill="none" stroke="#7E7E7E" stroke-width="2" stroke-linecap="round" stroke-linejoin="round"/><path d="M 230,340 L 235.75,331.30434782608694 L 224.25,331.30434782608694 Z" fill="rgb(126,126,126)" stroke="#7E7E7E" stroke-width="2" stroke-linecap="round" stroke-linejoin="round"/></g><g transform="translate(240.8950000000001, 263.5000000000001)" width="18.21" height="18"><text text-decoration="none" x="1.1050000000000004" fill="#4b4b4b" font-size="10pt" font-family="noto_regular"  y="15">No</text><text text-decoration="none" x="17.105" fill="#4b4b4b" font-size="10pt" font-family="noto_regular"  y="15"></text></g></g><g id="xRuOfT9BP1y"><g transform="translate(-150 330)"><path d="M 0,70.00000000000011 L 20,0 L 169.99999999999994,0 L 149.99999999999994,70.00000000000011 L 0,70.00000000000011 Z" fill="rgb(131,196,220)" stroke="#2F8CAE" stroke-width="2" stroke-linecap="round" stroke-linejoin="round"/></g><g transform="translate(-83.38000000000002, 346.99500000000006) rotate(0, 18.38, 18.005)" width="36.76" height="36.01"><text text-decoration="none" x="0" fill="#ffffff" font-size="20pt" font-family="noto_regular"  y="25">Tie</text><text text-decoration="none" x="37" fill="#4b4b4b" font-size="10pt" font-family="noto_regular"  y="25"></text></g></g><g id="pqIBPWIo91o"><mask id="31090" x="-79" y="191" width="103" height="153" maskUnits="userSpaceOnUse"><rect x="-79" y="191" width="103" height="153" fill="white" />undefinedundefinedundefined</mask><g mask="url(#31090)"><path d="M -65,330 L -65.00000000000003,214.99999999999994 Q -65.00000000000003,204.99999999999994 -55.00000000000003,204.99999999999994 L 10,205" fill="none" stroke="#7E7E7E" stroke-width="2" stroke-linecap="round" stroke-linejoin="round"/><path d="M -65,330 L -59.25,321.30434782608694 L -70.75,321.30434782608694 Z" fill="rgb(126,126,126)" stroke="#7E7E7E" stroke-width="2" stroke-linecap="round" stroke-linejoin="round"/></g>undefinedundefinedundefined</g><g id="f3qz7RqY1BC"><g transform="translate(-20 509.99999999999994)"><path d="M 0,70.00000000000011 L 20,0 L 169.99999999999994,0 L 149.99999999999994,70.00000000000011 L 0,70.00000000000011 Z" fill="rgb(131,196,220)" stroke="#2F8CAE" stroke-width="2" stroke-linecap="round" stroke-linejoin="round"/></g><g transform="translate(21.084999999999972, 526.995) rotate(0, 43.915, 18.005)" width="87.83" height="36.01"><text text-decoration="none" x="0" fill="#ffffff" font-size="20pt" font-family="noto_regular"  y="25">C&#160;</text><text text-decoration="none" x="25" fill="#ffffff" font-size="20pt" font-family="noto_regular"  y="25">wins&#160;</text><text text-decoration="none" x="88" fill="#4b4b4b" font-size="10pt" font-family="noto_regular"  y="25"></text></g></g><g id="3tn8dkBYx8X"><g transform="translate(270.0000000000001 510.00000000000006)"><path d="M 0,70.00000000000011 L 20,0 L 169.99999999999994,0 L 149.99999999999994,70.00000000000011 L 0,70.00000000000011 Z" fill="rgb(131,196,220)" stroke="#2F8CAE" stroke-width="2" stroke-linecap="round" stroke-linejoin="round"/></g><g transform="translate(309.7650000000001, 526.9950000000001) rotate(0, 45.235, 18.005)" width="90.47" height="36.01"><text text-decoration="none" x="8.235" fill="#ffffff" font-size="20pt" font-family="noto_regular"  y="25">U&#160;</text><text text-decoration="none" x="33.235" fill="#ffffff" font-size="20pt" font-family="noto_regular"  y="25">wins</text><text text-decoration="none" x="89.235" fill="#4b4b4b" font-size="10pt" font-family="noto_regular"  y="25"></text></g></g><g id="rEmzmnbJ0jX"><g><path d="M 120,405 L 88.30097087378687,404.99999999999994 Q 78.30097087378687,404.99999999999994 78.27230709879849,414.99995891931576 L 78,510" fill="none" stroke="#7E7E7E" stroke-width="2" stroke-linecap="round" stroke-linejoin="round"/></g></g><g id="HC5Hc579Tlv"><g><path d="M 340,405 L 351.4077669902916,404.99999999999994 Q 361.4077669902916,404.99999999999994 361.36893233167723,414.99992459318014 L 361,510" fill="none" stroke="#7E7E7E" stroke-width="2" stroke-linecap="round" stroke-linejoin="round"/></g></g><g id="QnYwTy21TA9"><g transform="translate(29.99999999999966 439.99999999999994)"><rect x="0" y="0" width="120" height="50" fill="rgba(255,255,255,0.01)" stroke="rgba(255,255,255,0.01)"/></g><g transform="translate(39.99999999999966, 449.99999999999994) rotate(0, 0, 0)" width="21.46" height="18"><text text-decoration="none" x="0" fill="#656565" font-size="10pt" font-family="noto_regular"  y="15">Yes</text><text text-decoration="none" x="22" fill="#4b4b4b" font-size="10pt" font-family="noto_regular"  y="15"></text></g></g><g id="cXTsfT3rHeL"><g transform="translate(320.0000000000001 439.99999999999994)"><rect x="0" y="0" width="120" height="50" fill="rgba(255,255,255,0.01)" stroke="rgba(255,255,255,0.01)"/></g><g transform="translate(330.0000000000001, 449.99999999999994) rotate(0, 0, 0)" width="18.21" height="18"><text text-decoration="none" x="0" fill="#656565" font-size="10pt" font-family="noto_regular"  y="15">No</text><text text-decoration="none" x="16" fill="#4b4b4b" font-size="10pt" font-family="noto_regular"  y="15"></text></g></g><g id="PppoZHjU0gl"><g transform="translate(70.00000000000011 50)"><rect x="0" y="0" width="120" height="40" fill="rgba(255,255,255,0.01)" stroke="rgba(255,255,255,0.01)"/></g><g transform="translate(80.00000000000011, 60) rotate(0, 0, 0)" width="21.46" height="18"><text text-decoration="none" x="0" fill="#656565" font-size="10pt" font-family="noto_regular"  y="15">Yes</text><text text-decoration="none" x="22" fill="#4b4b4b" font-size="10pt" font-family="noto_regular"  y="15"></text></g></g><g id="YSEl2Kd3sd0"><g transform="translate(590 379.99999999999994)"><path d="M 110.00000000000007,0 L 0,64.99999999999993 L 110.00000000000007,129.99999999999986 L 220.00000000000014,64.99999999999993 L 110.00000000000007,0 Z" fill="rgb(190,180,180)" stroke="#585757" stroke-width="2" stroke-linecap="round" stroke-linejoin="round"/></g><g transform="translate(625.92, 426.9949999999999) rotate(0, 74.08, 18.005)" width="148.16" height="36.01"><text text-decoration="none" x="2.0799999999999983" fill="#ffffff" font-size="20pt" font-family="noto_regular"  y="25">C&#x27;s&#160;</text><text text-decoration="none" x="46.08" fill="#ffffff" font-size="20pt" font-family="noto_regular"  y="25">==Paper</text><text text-decoration="none" x="146.07999999999998" fill="#4b4b4b" font-size="10pt" font-family="noto_regular"  y="25"></text></g></g><g id="MZGhgAQRhTr"><g transform="translate(499.9999999999999 509.99999999999994)"><path d="M 0,70.00000000000011 L 20,0 L 169.99999999999994,0 L 149.99999999999994,70.00000000000011 L 0,70.00000000000011 Z" fill="rgb(131,196,220)" stroke="#2F8CAE" stroke-width="2" stroke-linecap="round" stroke-linejoin="round"/></g><g transform="translate(563.1549999999997, 526.995) rotate(0, 21.845, 18.005)" width="43.69" height="36.01"><text text-decoration="none" x="3.344999999999999" fill="#ffffff" font-size="20pt" font-family="noto_regular"  y="57">Tie</text><text text-decoration="none" x="40.345" fill="#4b4b4b" font-size="10pt" font-family="noto_regular"  y="57"></text></g></g><g id="HCOzh30AjZe"><g transform="translate(549.9999999999997 460.00000000000006)"><rect x="0" y="0" width="120" height="50" fill="rgba(255,255,255,0.01)" stroke="rgba(255,255,255,0.01)"/></g><g transform="translate(559.9999999999997, 470.00000000000006) rotate(0, 0, 0)" width="21.46" height="18"><text text-decoration="none" x="0" fill="#656565" font-size="10pt" font-family="noto_regular"  y="15">Yes</text><text text-decoration="none" x="22" fill="#4b4b4b" font-size="10pt" font-family="noto_regular"  y="15"></text></g></g><g id="u8TE2tVsRof"><g transform="translate(780 509.9999999999999)"><path d="M 0,70.00000000000011 L 20,0 L 169.99999999999994,0 L 149.99999999999994,70.00000000000011 L 0,70.00000000000011 Z" fill="rgb(131,196,220)" stroke="#2F8CAE" stroke-width="2" stroke-linecap="round" stroke-linejoin="round"/></g><g transform="translate(824.55, 526.995) rotate(0, 40.45, 18.005)" width="80.9" height="36.01"><text text-decoration="none" x="31.450000000000003" fill="#ffffff" font-size="20pt" font-family="noto_regular"  y="25">C&#160;</text><text text-decoration="none" x="12.450000000000003" fill="#ffffff" font-size="20pt" font-family="noto_regular"  y="57">wins</text><text text-decoration="none" x="68.45" fill="#4b4b4b" font-size="10pt" font-family="noto_regular"  y="57"></text></g></g><g id="dKaYL5mr2nz"><g><path d="M 810,445 L 855,444.9999999999999 Q 865,444.9999999999999 865,454.9999999999999 L 865,510" fill="none" stroke="#7E7E7E" stroke-width="2" stroke-linecap="round" stroke-linejoin="round"/></g></g><g id="N3aGlfcqVbX"><g transform="translate(859.9999999999998 460)"><rect x="0" y="0" width="120" height="50" fill="rgba(255,255,255,0.01)" stroke="rgba(255,255,255,0.01)"/></g><g transform="translate(869.9999999999998, 470) rotate(0, 0, 0)" width="18.21" height="18"><text text-decoration="none" x="0" fill="#656565" font-size="10pt" font-family="noto_regular"  y="15">No</text><text text-decoration="none" x="16" fill="#4b4b4b" font-size="10pt" font-family="noto_regular"  y="15"></text></g></g><g id="QgfvaxeObjG"><mask id="55f20" x="606" y="36" width="188" height="148" maskUnits="userSpaceOnUse"><rect x="606" y="36" width="188" height="148" fill="white" /><rect x="686.2699999999999" y="98" width="27.46" height="24" fill="black" /></mask><g mask="url(#55f20)"><path d="M 620,50 L 620,100.00000000000013 Q 620,110.00000000000013 630,110.00000000000011 L 700,110 L 770,110.00000000000011 Q 780,110.00000000000013 780,120.00000000000013 L 780,170" fill="none" stroke="#7E7E7E" stroke-width="2" stroke-linecap="round" stroke-linejoin="round"/><path d="M 780,170 L 785.75,161.30434782608697 L 774.25,161.30434782608697 Z" fill="rgb(126,126,126)" stroke="#7E7E7E" stroke-width="2" stroke-linecap="round" stroke-linejoin="round"/></g><g transform="translate(689.2699999999999, 101)" width="21.46" height="18"><text text-decoration="none" x="0" fill="#4b4b4b" font-size="10pt" font-family="noto_regular"  y="15">Yes</text><text text-decoration="none" x="22" fill="#4b4b4b" font-size="10pt" font-family="noto_regular"  y="15"></text></g></g><g id="CdWL8R47QRe"><mask id="f1b32" x="681" y="286" width="113" height="108" maskUnits="userSpaceOnUse"><rect x="681" y="286" width="113" height="108" fill="white" /><rect x="723.6093573110138" y="328" width="27.46" height="24" fill="black" /></mask><g mask="url(#f1b32)"><path d="M 780,300 L 780,329.9999999999999 Q 780,339.9999999999999 770,339.9999999999999 L 737,340 L 704.6799946443923,339.9999999999999 Q 694.6799946443923,339.9999999999999 694.7599934232886,349.9996800046488 L 695,380" fill="none" stroke="#7E7E7E" stroke-width="2" stroke-linecap="round" stroke-linejoin="round"/><path d="M 695,380 L 700.75,371.30434782608694 L 689.25,371.30434782608694 Z" fill="rgb(126,126,126)" stroke="#7E7E7E" stroke-width="2" stroke-linecap="round" stroke-linejoin="round"/></g><g transform="translate(726.6093573110138, 331)" width="21.46" height="18"><text text-decoration="none" x="0" fill="#4b4b4b" font-size="10pt" font-family="noto_regular"  y="15">Yes</text><text text-decoration="none" x="22" fill="#4b4b4b" font-size="10pt" font-family="noto_regular"  y="15"></text></g></g><g id="26HJtjr5nzx"><g><path d="M 590,445 L 594,510" fill="none" stroke="#7E7E7E" stroke-width="2" stroke-linecap="round" stroke-linejoin="round"/></g></g><g id="YD7s4Wy5lk6"><g transform="translate(899.9999999999998 280.0000000000001)"><path d="M 0,70.00000000000011 L 20,0 L 169.99999999999994,0 L 149.99999999999994,70.00000000000011 L 0,70.00000000000011 Z" fill="rgb(131,196,220)" stroke="#2F8CAE" stroke-width="2" stroke-linecap="round" stroke-linejoin="round"/></g><g transform="translate(943.2299999999998, 296.9950000000002) rotate(0, 41.77, 18.005)" width="83.54" height="36.01"><text text-decoration="none" x="1.2700000000000031" fill="#ffffff" font-size="20pt" font-family="noto_regular"  y="25">U&#160;</text><text text-decoration="none" x="26.270000000000003" fill="#ffffff" font-size="20pt" font-family="noto_regular"  y="25">wins</text><text text-decoration="none" x="82.27000000000001" fill="#4b4b4b" font-size="10pt" font-family="noto_regular"  y="25"></text></g></g><g id="qed6RAAePWN"><g><path d="M 890,235 L 974.9999999999998,234.99999999999997 Q 984.9999999999998,234.99999999999997 984.9999999999998,244.99999999999997 L 985,280" fill="none" stroke="#7E7E7E" stroke-width="2" stroke-linecap="round" stroke-linejoin="round"/></g></g><g id="qx5ewckP1eH"><g transform="translate(930 200.00000000000003)"><rect x="0" y="0" width="120" height="50" fill="rgba(255,255,255,0.01)" stroke="rgba(255,255,255,0.01)"/></g><g transform="translate(940, 210.00000000000003) rotate(0, 0, 0)" width="21.46" height="18"><text text-decoration="none" x="0" fill="#656565" font-size="10pt" font-family="noto_regular"  y="15">Yes</text><text text-decoration="none" x="22" fill="#4b4b4b" font-size="10pt" font-family="noto_regular"  y="15"></text></g></g><g id="b7V6KjJs9Un"><g transform="translate(860.0000000000005 89.99999999999997)"><path d="M 0,80 L 20,0 L 229.99999999999991,0 L 209.99999999999991,80 L 0,80 Z" fill="rgb(131,196,220)" stroke="#2F8CAE" stroke-width="2" stroke-linecap="round" stroke-linejoin="round"/></g><g transform="translate(896.5900000000005, 111.99499999999998) rotate(0, 78.41, 18.005)" width="156.82" height="36.01"><text text-decoration="none" x="2.4099999999999966" fill="#ffffff" font-size="20pt" font-family="noto_regular"  y="25">No&#160;</text><text text-decoration="none" x="43.41" fill="#ffffff" font-size="20pt" font-family="noto_regular"  y="25">Selection</text><text text-decoration="none" x="154.41" fill="#4b4b4b" font-size="10pt" font-family="noto_regular"  y="25"></text></g></g><g id="gCQZbyd6pTl"><g><path d="M 1010,60 L 1010,64.99999999999991 Q 1010.0000000000001,74.00000000000003 1001,75 Q 992.5564490696598,76.50612836213274 992.8354698343941,84.99460200987323 L 993,90" fill="none" stroke="#7E7E7E" stroke-width="2" stroke-linecap="round" stroke-linejoin="round"/></g></g><g id="LDqTAwgzG9x"><g transform="translate(960 59.99999999999997)"><rect x="0" y="0" width="120" height="40" fill="rgba(255,255,255,0.01)" stroke="rgba(255,255,255,0.01)"/></g><g transform="translate(970, 69.99999999999997) rotate(0, 0, 0)" width="21.68" height="18"><text text-decoration="none" x="0" fill="#656565" font-size="10pt" font-family="noto_regular"  y="15">No&#160;</text><text text-decoration="none" x="19" fill="#4b4b4b" font-size="10pt" font-family="noto_regular"  y="15"></text></g></g><g id="n1PdQ0Fg1bA"><g><path d="M 1120,-5 L 1308.5490734393886,-5.0000000000000675 Q 1318.5490734393886,-5.000000000000071 1318.6310573314179,4.9996639264250415 L 1319,50" fill="none" stroke="#7E7E7E" stroke-width="2" stroke-linecap="round" stroke-linejoin="round"/></g></g><g id="ntdhuWDQfZg"><g transform="translate(1200 -40.00000000000003)"><rect x="0" y="0" width="120" height="50" fill="rgba(255,255,255,0.01)" stroke="rgba(255,255,255,0.01)"/></g><g transform="translate(1210, -30.00000000000003) rotate(0, 0, 0)" width="21.46" height="18"><text text-decoration="none" x="0" fill="#656565" font-size="10pt" font-family="noto_regular"  y="15">Yes</text><text text-decoration="none" x="22" fill="#4b4b4b" font-size="10pt" font-family="noto_regular"  y="15"></text></g></g><g id="iG7zig3GAfa"><mask id="d4140" x="1176" y="101" width="78" height="233" maskUnits="userSpaceOnUse"><rect x="1176" y="101" width="78" height="233" fill="white" /><rect x="1215.6581757280517" y="182.86527869090875" width="24.21" height="24" fill="black" /></mask><g mask="url(#d4140)"><path d="M 1210,115 L 1200,115 Q 1190,115 1190,125 L 1190,155 L 1190,184.73611326843374 Q 1190,194.73611326843374 1199.9994429568912,194.84166208120882 L 1215,195 L 1230.0005570431088,194.84166208120882 Q 1240,194.73611326843374 1240,204.73611326843374 L 1240,320" fill="none" stroke="#7E7E7E" stroke-width="2" stroke-linecap="round" stroke-linejoin="round"/><path d="M 1240,320 L 1245.75,311.30434782608694 L 1234.25,311.30434782608694 Z" fill="rgb(126,126,126)" stroke="#7E7E7E" stroke-width="2" stroke-linecap="round" stroke-linejoin="round"/></g><g transform="translate(1218.6581757280517, 185.86527869090875)" width="18.21" height="18"><text text-decoration="none" x="1.1050000000000004" fill="#4b4b4b" font-size="10pt" font-family="noto_regular"  y="15">No</text><text text-decoration="none" x="17.105" fill="#4b4b4b" font-size="10pt" font-family="noto_regular"  y="15"></text></g></g><g id="gSczsJOSiZl"><g transform="translate(1479.9999999999998 270)"><path d="M 0,70.00000000000011 L 20,0 L 169.99999999999994,0 L 149.99999999999994,70.00000000000011 L 0,70.00000000000011 Z" fill="rgb(131,196,220)" stroke="#2F8CAE" stroke-width="2" stroke-linecap="round" stroke-linejoin="round"/></g><g transform="translate(1524.5499999999997, 286.99500000000006) rotate(0, 40.45, 18.005)" width="80.9" height="36.01"><text text-decoration="none" x="31.450000000000003" fill="#ffffff" font-size="20pt" font-family="noto_regular"  y="25">C&#160;</text><text text-decoration="none" x="12.450000000000003" fill="#ffffff" font-size="20pt" font-family="noto_regular"  y="57">wins</text><text text-decoration="none" x="68.45" fill="#4b4b4b" font-size="10pt" font-family="noto_regular"  y="57"></text></g></g><g id="aSR4fr8qTpa"><mask id="7f041" x="1416" y="101" width="166" height="174" maskUnits="userSpaceOnUse"><rect x="1416" y="101" width="166" height="174" fill="white" /><rect x="1554.0593036291434" y="107.10847449770024" width="27.46" height="24" fill="black" /></mask><g mask="url(#7f041)"><path d="M 1430,115 L 1557.7832029077413,114.99999999999983 Q 1567.7832029077413,114.99999999999982 1567.7980520072786,124.99998897520588 L 1568,261" fill="none" stroke="#7E7E7E" stroke-width="2" stroke-linecap="round" stroke-linejoin="round"/><path d="M 1568,261 L 1573.75,252.30434782608697 L 1562.25,252.30434782608697 Z" fill="rgb(126,126,126)" stroke="#7E7E7E" stroke-width="2" stroke-linecap="round" stroke-linejoin="round"/></g><g transform="translate(1557.0593036291434, 110.10847449770024)" width="21.46" height="18"><text text-decoration="none" x="0" fill="#4b4b4b" font-size="10pt" font-family="noto_regular"  y="15">Yes</text><text text-decoration="none" x="22" fill="#4b4b4b" font-size="10pt" font-family="noto_regular"  y="15"></text></g></g><g id="Ek7U1Xy7DoS"><g transform="translate(1040 509.9999999999999)"><path d="M 0,70.00000000000011 L 20,0 L 169.99999999999994,0 L 149.99999999999994,70.00000000000011 L 0,70.00000000000011 Z" fill="rgb(131,196,220)" stroke="#2F8CAE" stroke-width="2" stroke-linecap="round" stroke-linejoin="round"/></g><g transform="translate(1083.23, 526.995) rotate(0, 41.77, 18.005)" width="83.54" height="36.01"><text text-decoration="none" x="1.2700000000000031" fill="#ffffff" font-size="20pt" font-family="noto_regular"  y="25">U&#160;</text><text text-decoration="none" x="26.270000000000003" fill="#ffffff" font-size="20pt" font-family="noto_regular"  y="25">wins</text><text text-decoration="none" x="82.27000000000001" fill="#4b4b4b" font-size="10pt" font-family="noto_regular"  y="25"></text></g></g><g id="avlTLdwp8IQ"><g transform="translate(1300 509.9999999999999)"><path d="M 0,70.00000000000011 L 20,0 L 169.99999999999994,0 L 149.99999999999994,70.00000000000011 L 0,70.00000000000011 Z" fill="rgb(131,196,220)" stroke="#2F8CAE" stroke-width="2" stroke-linecap="round" stroke-linejoin="round"/></g><g transform="translate(1366.62, 526.995) rotate(0, 18.38, 18.005)" width="36.76" height="36.01"><text text-decoration="none" x="0" fill="#ffffff" font-size="20pt" font-family="noto_regular"  y="25">Tie</text><text text-decoration="none" x="37" fill="#4b4b4b" font-size="10pt" font-family="noto_regular"  y="25"></text></g></g><g id="gaHeiKlQIp0"><mask id="6f066" x="1336" y="371" width="58" height="140" maskUnits="userSpaceOnUse"><rect x="1336" y="371" width="58" height="140" fill="white" />undefined</mask><g mask="url(#6f066)"><path d="M 1350,385 L 1369.6819731203052,384.9999999999999 Q 1379.6819731203052,384.99999999999983 1379.7103682629474,394.99995968571227 L 1380,497" fill="none" stroke="#7E7E7E" stroke-width="2" stroke-linecap="round" stroke-linejoin="round"/></g>undefined</g><g id="I12hCiCa3O8"><g transform="translate(1080 460)"><rect x="0" y="0" width="120" height="69.99999999999957" fill="rgba(255,255,255,0.01)" stroke="rgba(255,255,255,0.01)"/></g><g transform="translate(1090, 470) rotate(0, 0, 0)" width="21.46" height="18"><text text-decoration="none" x="0" fill="#656565" font-size="10pt" font-family="noto_regular"  y="15">Yes</text><text text-decoration="none" x="22" fill="#4b4b4b" font-size="10pt" font-family="noto_regular"  y="15"></text></g></g><g id="uk5oRLprZel"><mask id="73dc9" x="1116" y="371" width="32" height="150" maskUnits="userSpaceOnUse"><rect x="1116" y="371" width="32" height="150" fill="white" />undefinedundefined</mask><g mask="url(#73dc9)"><path d="M 1130,385 L 1134,507" fill="none" stroke="#7E7E7E" stroke-width="2" stroke-linecap="round" stroke-linejoin="round"/></g>undefinedundefined</g><g id="YhH8UkZNzRu"><g transform="translate(1380.0000000000002 440)"><rect x="0" y="0" width="120" height="69.99999999999957" fill="rgba(255,255,255,0.01)" stroke="rgba(255,255,255,0.01)"/></g><g transform="translate(1390.0000000000002, 450) rotate(0, 0, 0)" width="18.21" height="18"><text text-decoration="none" x="0" fill="#656565" font-size="10pt" font-family="noto_regular"  y="15">No</text><text text-decoration="none" x="16" fill="#4b4b4b" font-size="10pt" font-family="noto_regular"  y="15"></text></g></g><g id="Wg36At9hOHz"><g transform="translate(1420 650)"><ellipse cx="50" cy="50" rx="50" ry="50" fill="rgb(254,190,50)" stroke="#BB881A" stroke-width="2" stroke-linecap="round" stroke-linejoin="round"/></g><g transform="translate(1469.995, 691) rotate(0, 0.005, 9)" width="0.01" height="18"><text text-decoration="none" x="0.005" fill="#4b4b4b" font-size="10pt" font-family="noto_regular"  y="15"></text></g></g><g id="9LktctdZcL8"><g><path d="M 1125,580 L 1125,690 Q 1125,700 1135,700 L 1420,700" fill="none" stroke="#7E7E7E" stroke-width="2" stroke-linecap="round" stroke-linejoin="round"/><path d="M 1420,700 L 1411.304347826087,694.25 L 1411.304347826087,705.75 Z" fill="rgb(126,126,126)" stroke="#7E7E7E" stroke-width="2" stroke-linecap="round" stroke-linejoin="round"/></g></g><g id="F2wEDBTF6CH"><mask id="8cd63" x="1446" y="531" width="38" height="133" maskUnits="userSpaceOnUse"><rect x="1446" y="531" width="38" height="133" fill="white" />undefined</mask><g mask="url(#8cd63)"><path d="M 1460,545 L 1460,545 Q 1470,545 1470,555 L 1470,650" fill="none" stroke="#7E7E7E" stroke-width="2" stroke-linecap="round" stroke-linejoin="round"/><path d="M 1470,650 L 1475.75,641.304347826087 L 1464.25,641.304347826087 Z" fill="rgb(126,126,126)" stroke="#7E7E7E" stroke-width="2" stroke-linecap="round" stroke-linejoin="round"/></g>undefined</g><g id="mHb6MP8v8F6"><g><path d="M 1520,700 L 1554.9999999999998,700 Q 1564.9999999999998,700 1564.9999999999998,690 L 1565,340" fill="none" stroke="#7E7E7E" stroke-width="2" stroke-linecap="round" stroke-linejoin="round"/><path d="M 1520,700 L 1528.695652173913,705.75 L 1528.695652173913,694.25 Z" fill="rgb(126,126,126)" stroke="#7E7E7E" stroke-width="2" stroke-linecap="round" stroke-linejoin="round"/></g></g><g id="NyijJqLb0bv"><g transform="translate(1340.0000000000002 829.9999999999998)"><path d="M 39.999999999999986,79.99999999999997 L 39.999999999999986,79.99999999999997 L 39.999999999999986,79.99999999999997 A 39.999999999999986 39.999999999999986 0 0 1 0 39.99999999999999 L 0,39.999999999999986 L 0,39.99999999999999 A 39.999999999999986 39.999999999999986 0 0 1 39.999999999999986 0 L 209.99999999999966,0 L 209.99999999999966,0 L 209.99999999999966,0 A 39.999999999999986 39.999999999999986 0 0 1 249.99999999999966 39.999999999999986 L 249.99999999999966,39.999999999999986 L 249.99999999999966,39.999999999999986 A 39.999999999999986 39.999999999999986 0 0 1 209.99999999999966 79.99999999999997 L 39.999999999999986,79.99999999999997 Z" fill="rgb(224,98,108)" stroke="#843138" stroke-width="2" stroke-linecap="round" stroke-linejoin="round"/></g><g transform="translate(1451.335, 860.9999999999998) rotate(0, 13.665, 9)" width="27.33" height="18"><text text-decoration="none" x="1.6649999999999991" fill="#ffffff" font-size="10pt" font-family="noto_regular"  y="15">End&#160;</text><text text-decoration="none" x="25.665" fill="#4b4b4b" font-size="10pt" font-family="noto_regular"  y="15"></text></g></g><g id="CRjBvpoN0SN"><mask id="40f13" x="1456" y="736" width="29" height="108" maskUnits="userSpaceOnUse"><rect x="1456" y="736" width="29" height="108" fill="white" />undefined</mask><g mask="url(#40f13)"><path d="M 1470,750 L 1471,830" fill="none" stroke="#7E7E7E" stroke-width="2" stroke-linecap="round" stroke-linejoin="round"/><path d="M 1471,830 L 1476.6848884174694,821.2616414349947 L 1465.1852092243407,821.3475393693477 Z" fill="rgb(126,126,126)" stroke="#7E7E7E" stroke-width="2" stroke-linecap="round" stroke-linejoin="round"/></g>undefined</g></svg>